<?xml version="1.0" encoding="UTF-8"?>
<svg xmlns="http://www.w3.org/2000/svg" xmlns:xlink="http://www.w3.org/1999/xlink" width="50px" height="50px" viewBox="0 0 50 50" version="1.1">
<g id="surface1">
<path style=" stroke:none;fill-rule:nonzero;fill:rgb(0%,0%,0%);fill-opacity:1;" d="M 22.890625 0.234375 C 22.339844 0.347656 21.265625 0.742188 20.507812 1.105469 C 18.097656 2.296875 16.335938 4.375 15.4375 7.09375 C 14.738281 9.246094 14.957031 12.179688 15.988281 14.316406 C 16.222656 14.796875 16.394531 15.203125 16.367188 15.21875 C 16.351562 15.234375 15.625 15.128906 14.738281 14.972656 C 12.238281 14.535156 9.492188 14.257812 6.0625 14.085938 C 2.980469 13.925781 2.863281 13.925781 2.5 14.199219 L 2.109375 14.492188 L 2.0625 18.328125 L 2.035156 22.164062 L 1.496094 22.457031 C 1.191406 22.617188 0.753906 23.023438 0.507812 23.371094 L 0.0742188 24.011719 L 0.0273438 26.640625 C -0.0273438 29.636719 0.0585938 30.117188 0.8125 30.960938 C 1.554688 31.773438 2.324219 32.019531 3.878906 31.949219 C 5.726562 31.859375 6.832031 31.207031 7.601562 29.738281 C 8.039062 28.910156 8.140625 26.015625 7.789062 24.796875 C 7.382812 23.386719 6.175781 22.398438 4.460938 22.035156 L 4.070312 21.949219 L 4.070312 16.132812 L 5.496094 16.132812 C 10.769531 16.132812 18.109375 17.441406 22.761719 19.199219 L 23.984375 19.664062 L 23.984375 33.386719 C 23.984375 40.945312 23.9375 47.09375 23.867188 47.0625 C 23.808594 47.050781 23.007812 46.65625 22.09375 46.191406 C 17.414062 43.894531 10.261719 42.164062 5.390625 42.152344 C 4.871094 42.152344 4.347656 42.09375 4.257812 42.035156 C 4.113281 41.949219 4.070312 40.8125 4.039062 37.5 L 3.996094 33.066406 L 3.007812 33.023438 L 2.035156 32.980469 L 2.035156 43.445312 L 2.382812 43.722656 C 2.6875 43.953125 3.082031 44.011719 5.1875 44.085938 C 11.585938 44.332031 18.210938 46.089844 22.703125 48.734375 C 23.414062 49.140625 24.214844 49.621094 24.503906 49.78125 C 25.074219 50.117188 24.796875 50.21875 26.992188 48.878906 C 31.394531 46.191406 38.371094 44.316406 44.882812 44.085938 C 46.917969 44.011719 47.3125 43.953125 47.617188 43.722656 L 47.964844 43.445312 L 47.964844 32.980469 L 46.992188 33.023438 L 46.003906 33.066406 L 45.960938 37.5 C 45.929688 40.8125 45.886719 41.949219 45.742188 42.035156 C 45.652344 42.09375 45.117188 42.152344 44.550781 42.152344 C 42.996094 42.152344 39.855469 42.542969 37.5 43.023438 C 33.894531 43.75 30.523438 44.882812 27.558594 46.367188 C 26.773438 46.773438 26.105469 47.09375 26.074219 47.09375 C 26.046875 47.09375 26.015625 40.929688 26.015625 33.386719 L 26.015625 19.679688 L 27.222656 19.230469 C 30.058594 18.152344 33.300781 17.324219 36.890625 16.789062 C 39.070312 16.46875 42.890625 16.132812 44.519531 16.132812 L 45.929688 16.132812 L 45.929688 21.949219 L 45.539062 22.035156 C 43.878906 22.382812 42.675781 23.359375 42.222656 24.695312 C 41.847656 25.828125 41.960938 28.894531 42.398438 29.738281 C 43.167969 31.191406 44.273438 31.859375 46.089844 31.949219 C 47.558594 32.019531 48.199219 31.847656 48.9375 31.207031 C 49.871094 30.390625 50 29.914062 50 27.09375 C 50 25.609375 49.925781 24.402344 49.839844 24.113281 C 49.59375 23.386719 49.027344 22.6875 48.460938 22.425781 L 47.964844 22.179688 L 47.9375 18.34375 L 47.890625 14.492188 L 47.5 14.199219 C 47.136719 13.925781 47.019531 13.925781 43.792969 14.085938 C 40.582031 14.246094 37.425781 14.59375 34.898438 15.042969 C 34.214844 15.160156 33.648438 15.234375 33.621094 15.203125 C 33.574219 15.175781 33.722656 14.824219 33.910156 14.433594 C 34.664062 12.949219 34.957031 11.6875 34.941406 9.882812 C 34.925781 8.515625 34.855469 8.007812 34.5625 7.09375 C 33.996094 5.390625 33.226562 4.128906 31.976562 2.890625 C 29.609375 0.539062 26.222656 -0.449219 22.890625 0.234375 Z M 27.777344 2.5 C 30.289062 3.429688 32.164062 5.582031 32.789062 8.242188 C 33.269531 10.246094 32.789062 12.761719 31.628906 14.449219 C 30.640625 15.886719 30.390625 16.03125 27.574219 16.960938 L 25 17.820312 L 22.414062 16.976562 C 19.882812 16.148438 19.824219 16.121094 19.113281 15.363281 C 15.914062 11.992188 16.46875 6.277344 20.261719 3.574219 C 21.933594 2.371094 23.152344 2.019531 25.289062 2.09375 C 26.46875 2.121094 27.035156 2.222656 27.777344 2.5 Z M 4.871094 24.1875 C 5.726562 24.550781 5.960938 25.117188 5.960938 26.933594 C 5.960938 29.402344 5.550781 29.941406 3.621094 29.941406 C 2.019531 29.941406 2.035156 29.972656 2.035156 27.019531 C 2.035156 24.695312 2.050781 24.5625 2.355469 24.273438 C 2.746094 23.910156 4.097656 23.867188 4.871094 24.1875 Z M 47.644531 24.273438 C 47.949219 24.5625 47.964844 24.695312 47.964844 26.992188 C 47.964844 29.972656 47.980469 29.941406 46.394531 29.941406 C 44.449219 29.941406 44.039062 29.417969 44.039062 26.933594 C 44.039062 25.609375 44.085938 25.289062 44.332031 24.882812 C 44.710938 24.257812 45.347656 23.996094 46.453125 23.984375 C 47.136719 23.984375 47.398438 24.039062 47.644531 24.273438 Z M 47.644531 24.273438 "/>
</g>
</svg>
